# xmcd
#
# Track frame offsets: 
#        150
#        13403
#        29105
#        41701
#        57239
#        70128
#        85401
#        101249
#        121323
#
# Disc length: 1983 seconds
#
# Revision: 0
# Processed by: cddbd v1.5.2PL0 Copyright (c) Steve Scherf et al.
# Submitted via: ExactAudioCopy v1.0b4
#
DISCID=8307bd09
DTITLE=Cécile Doo-Kingué - Anybody Listening, Pt.1: Monologues 
DYEAR=2015
DGENRE=Blues
TTITLE0=Make Me
TTITLE1=Third World Child
TTITLE2=Six Letters
TTITLE3=Little Bit
TTITLE4=Home
TTITLE5=Bloodstained Vodka
TTITLE6=Sweet Talkin' Devil
TTITLE7=Animal Kingdom
TTITLE8=Anybody Listening
EXTD=
EXTT0=
EXTT1=
EXTT2=
EXTT3=
EXTT4=
EXTT5=
EXTT6=
EXTT7=
EXTT8=
PLAYORDER=
